<?xml version="1.0" encoding="utf-8"?>
<!-- Generator: Adobe Illustrator 26.2.1, SVG Export Plug-In . SVG Version: 6.00 Build 0)  -->
<svg version="1.1" id="Layer_1" xmlns="http://www.w3.org/2000/svg" xmlns:xlink="http://www.w3.org/1999/xlink" x="0px" y="0px"
	 viewBox="0 0 500 500" style="enable-background:new 0 0 500 500;" xml:space="preserve">
<style type="text/css">
	.st0{fill:#FFFFFF;}
</style>
<path class="st0" d="M465,500H35c-19.3,0-35-15.7-35-35V35C0,15.7,15.7,0,35,0h430c19.3,0,35,15.7,35,35v430
	C500,484.3,484.3,500,465,500z"/>
<text transform="matrix(1 0 0 1 -615.6542 284.2151)"><tspan x="0" y="0" style="font-family:'HelveticaNeue-Bold'; font-size:182px;">w</tspan><tspan x="148.1" y="0" style="font-family:'HelveticaNeue-Bold'; font-size:182px; letter-spacing:-10;">@</tspan><tspan x="283.7" y="0" style="font-family:'HelveticaNeue-Bold'; font-size:182px;">M</tspan></text>
<g>
	<path d="M-985.5,762.9l-22.3-83.9h-0.5l-21.3,83.9h-35.6l-39.7-125.1h36.3l23,84.9h0.5l20.8-84.9h33.4l21.3,84.7h0.5l23-84.7h35.3
		l-39.4,125.1H-985.5z"/>
	<path d="M-778.4,698.7c-0.4,1.9-0.6,3.6-0.6,5.2c0,1.6,0.3,2.9,1,4c0.6,1.1,1.7,1.6,3.1,1.6c3.4,0,6.8-1.1,10.3-3.3
		c3.5-2.2,6.5-5.2,9.2-9.2c2.7-3.9,4.8-8.7,6.5-14.2c1.7-5.5,2.5-11.4,2.5-17.9c0-9.7-1.7-18.2-5.1-25.5c-3.4-7.3-8-13.5-13.9-18.6
		c-5.9-5.1-12.8-8.9-20.8-11.5c-8-2.6-16.6-3.9-25.8-3.9c-10.3,0-19.7,1.8-28.2,5.4c-8.5,3.6-15.7,8.6-21.7,15
		c-6,6.4-10.6,14-13.8,22.7c-3.2,8.8-4.8,18.3-4.8,28.4c0,10.6,1.8,20.3,5.3,28.9c3.5,8.6,8.5,16,14.8,22.3
		c6.3,6.2,13.8,11,22.6,14.4c8.8,3.4,18.3,5.1,28.7,5.1c10.2,0,19.8-1.7,28.9-5.2c9.1-3.5,16.8-8.3,23.1-14.6h20.3
		c-8.2,12.6-18.8,22.2-31.7,28.9c-12.9,6.7-26.9,10-42.1,10c-12.9,0-25-2.3-36.3-6.8c-11.3-4.5-21.2-10.8-29.6-18.9
		c-8.5-8.1-15.1-17.6-20-28.7c-4.8-11-7.3-23-7.3-35.9c0-12.7,2.4-24.6,7.3-35.7c4.8-11,11.4-20.6,19.8-28.7
		c8.4-8.1,18.1-14.4,29.3-19.1c11.1-4.7,23-7,35.6-7c11,0,21.5,1.8,31.7,5.3c10.2,3.5,19.1,8.5,26.9,14.9
		c7.7,6.4,13.9,14.1,18.6,23.2c4.7,9.1,7,19.2,7,30.4c0,12.4-2.2,23.1-6.7,31.9c-4.4,8.9-9.8,16.1-16,21.8
		c-6.2,5.6-12.5,9.8-18.9,12.5c-6.4,2.7-11.5,4-15.4,4c-5.2,0-9.3-1.3-12.5-3.9c-3.1-2.6-4.9-5.9-5.2-9.9h-0.5
		c-2.9,4.8-6.7,8.4-11.4,10.6c-4.7,2.3-9.6,3.4-14.8,3.4c-5.2,0-10-1.1-14.6-3.3c-4.6-2.2-8.6-5.2-12.1-9c-3.5-3.8-6.2-8.2-8.2-13.2
		c-2-5-3-10.3-3-16c0-7.6,1.2-15.1,3.8-22.5c2.5-7.4,6-14,10.6-19.8c4.6-5.8,10.2-10.5,16.7-14c6.5-3.5,13.7-5.3,21.7-5.3
		c5.2,0,10.5,1.3,16,3.8c5.5,2.5,9.6,6.9,12.3,13.2l3.9-13.1h19.8l-15.2,62.4C-777.5,695.1-778,696.8-778.4,698.7z M-836.7,701.4
		c3.5,4,8,5.9,13.7,5.9c4.4,0,8.3-1.1,12-3.4c3.6-2.3,6.8-5.1,9.4-8.6c2.7-3.5,4.7-7.4,6.2-11.7c1.5-4.4,2.2-8.6,2.2-12.8
		c0-6-1.8-10.9-5.4-14.8c-3.6-3.9-8-5.8-13.2-5.8c-4.4,0-8.4,1.1-12.1,3.3c-3.7,2.2-6.9,5-9.6,8.5c-2.7,3.5-4.7,7.3-6.2,11.5
		c-1.5,4.2-2.2,8.3-2.2,12.3C-841.9,692.2-840.2,697.4-836.7,701.4z"/>
	<path d="M-1051.3,785.6l40.4,118.8h0.5l38.2-118.8h53.5v172.7h-35.6V835.9h-0.5l-42.3,122.4h-29.3l-42.3-121.2h-0.5v121.2h-35.6
		V785.6H-1051.3z"/>
</g>
<text transform="matrix(1 0 0 1 -988.4162 -78.0058)"><tspan x="0" y="0" style="font-family:'HelveticaNeue-Bold'; font-size:182px;">who’s</tspan><tspan x="515.6" y="0" style="font-family:'HelveticaNeue-Bold'; font-size:182px; letter-spacing:-10;">@</tspan><tspan x="0" y="147" style="font-family:'HelveticaNeue-Bold'; font-size:182px;">MoMA</tspan></text>
<g>
	<path d="M85.9,244l-12.2-46h-0.3l-11.7,46H42.3l-21.8-68.6h19.9L53,222h0.3l11.4-46.6H83l11.7,46.4H95l12.6-46.4H127L105.3,244
		H85.9z"/>
	<path d="M152.6,149.3V185h0.4c2.4-4,5.4-6.9,9.2-8.7c3.7-1.8,7.3-2.7,10.9-2.7c5,0,9.2,0.7,12.4,2.1c3.2,1.4,5.8,3.3,7.6,5.7
		c1.9,2.4,3.2,5.4,3.9,8.9c0.8,3.5,1.1,7.4,1.1,11.6V244h-18.8v-38.7c0-5.7-0.9-9.9-2.7-12.7c-1.8-2.8-4.9-4.2-9.4-4.2
		c-5.1,0-8.8,1.5-11.1,4.6c-2.3,3.1-3.4,8.1-3.4,15.1v36h-18.8v-94.7H152.6z"/>
	<path d="M211.1,194.9c1.7-4.5,4.1-8.3,7.2-11.4c3.1-3.1,6.8-5.6,11.1-7.3c4.3-1.7,9.2-2.6,14.6-2.6c5.4,0,10.3,0.9,14.7,2.6
		c4.4,1.7,8.1,4.2,11.2,7.3c3.1,3.1,5.5,6.9,7.2,11.4c1.7,4.5,2.5,9.4,2.5,14.9c0,5.5-0.8,10.4-2.5,14.9c-1.7,4.4-4.1,8.2-7.2,11.3
		c-3.1,3.1-6.8,5.6-11.2,7.2c-4.4,1.7-9.3,2.5-14.7,2.5c-5.4,0-10.3-0.8-14.6-2.5c-4.3-1.7-8.1-4.1-11.1-7.2
		c-3.1-3.1-5.5-6.9-7.2-11.3c-1.7-4.4-2.5-9.4-2.5-14.9C208.6,204.3,209.4,199.4,211.1,194.9z M228.2,217.8c0.5,2.6,1.4,5,2.7,7
		c1.3,2.1,3,3.7,5.1,5c2.1,1.2,4.8,1.9,8,1.9c3.2,0,5.9-0.6,8-1.9c2.2-1.2,3.9-2.9,5.2-5c1.3-2.1,2.2-4.4,2.7-7
		c0.5-2.6,0.8-5.3,0.8-8c0-2.7-0.3-5.4-0.8-8.1c-0.5-2.7-1.4-5-2.7-7c-1.3-2-3-3.7-5.2-5c-2.2-1.3-4.8-1.9-8-1.9
		c-3.2,0-5.8,0.6-8,1.9c-2.1,1.3-3.8,2.9-5.1,5c-1.3,2-2.2,4.4-2.7,7c-0.5,2.7-0.8,5.4-0.8,8.1C227.4,212.6,227.7,215.2,228.2,217.8
		z"/>
	<path d="M306.9,149.3v20.3c0.1,2.9-0.3,5.7-1.3,8.2c-0.9,2.6-2.2,4.8-3.9,6.8c-1.7,1.9-3.7,3.6-6,4.8c-2.3,1.3-4.9,2.1-7.6,2.5
		v-8.8c3.4-1.1,5.7-2.9,6.9-5.1c1.2-2.3,1.9-5,1.9-8.3H288v-20.4H306.9z"/>
	<path d="M332.4,227c0.8,1.5,1.9,2.7,3.3,3.6c1.3,0.9,2.9,1.6,4.6,2.1c1.7,0.4,3.5,0.7,5.4,0.7c1.3,0,2.7-0.2,4.2-0.5
		c1.5-0.3,2.8-0.8,4-1.5c1.2-0.7,2.2-1.5,3-2.7c0.8-1.1,1.2-2.5,1.2-4.2c0-2.8-1.9-5-5.6-6.4c-3.8-1.4-9-2.8-15.7-4.2
		c-2.7-0.6-5.4-1.3-8-2.2c-2.6-0.8-4.9-1.9-7-3.3c-2-1.4-3.7-3.1-4.9-5.2c-1.2-2.1-1.9-4.6-1.9-7.6c0-4.4,0.9-8,2.6-10.9
		c1.7-2.8,4-5.1,6.8-6.7c2.8-1.6,6-2.8,9.6-3.4c3.5-0.7,7.2-1,10.9-1c3.7,0,7.3,0.4,10.8,1.1c3.5,0.7,6.6,1.9,9.4,3.6
		c2.7,1.7,5,3.9,6.8,6.7c1.8,2.8,2.9,6.3,3.3,10.5H357c-0.3-3.6-1.6-6.1-4.1-7.4c-2.5-1.3-5.4-1.9-8.8-1.9c-1.1,0-2.2,0.1-3.4,0.2
		c-1.2,0.1-2.4,0.4-3.4,0.9c-1,0.4-1.9,1.1-2.6,1.9c-0.7,0.8-1.1,2-1.1,3.4c0,1.7,0.6,3.1,1.9,4.1c1.2,1.1,2.9,1.9,4.8,2.6
		c2,0.7,4.3,1.3,6.8,1.8c2.6,0.5,5.2,1.1,7.8,1.7c2.7,0.6,5.4,1.4,8,2.3c2.6,0.9,4.9,2.1,7,3.5c2,1.5,3.7,3.3,4.9,5.4
		c1.2,2.2,1.9,4.8,1.9,8c0,4.5-0.9,8.3-2.7,11.3c-1.8,3.1-4.2,5.5-7.1,7.4c-2.9,1.9-6.3,3.2-10,3.9c-3.8,0.8-7.6,1.1-11.5,1.1
		c-4,0-7.9-0.4-11.7-1.2c-3.8-0.8-7.2-2.1-10.2-4c-3-1.9-5.4-4.3-7.3-7.4c-1.9-3.1-2.9-6.9-3.1-11.5h17.9
		C331.1,223.8,331.5,225.5,332.4,227z"/>
	<path d="M451.5,208.8c-0.2,1-0.3,2-0.3,2.9c0,0.9,0.2,1.6,0.5,2.2c0.4,0.6,0.9,0.9,1.7,0.9c1.9,0,3.7-0.6,5.6-1.8
		c1.9-1.2,3.6-2.9,5-5c1.5-2.2,2.7-4.8,3.6-7.8c0.9-3,1.4-6.3,1.4-9.8c0-5.3-0.9-10-2.8-14c-1.9-4-4.4-7.4-7.6-10.2
		c-3.2-2.8-7-4.9-11.4-6.3c-4.4-1.4-9.1-2.1-14.1-2.1c-5.7,0-10.8,1-15.5,3c-4.6,2-8.6,4.7-11.9,8.2c-3.3,3.5-5.8,7.7-7.6,12.5
		c-1.8,4.8-2.7,10-2.7,15.6c0,5.8,1,11.1,2.9,15.9c1.9,4.7,4.6,8.8,8.1,12.2c3.5,3.4,7.6,6,12.4,7.9c4.8,1.9,10.1,2.8,15.7,2.8
		c5.6,0,10.9-0.9,15.9-2.9c5-1.9,9.2-4.6,12.7-8h11.1c-4.5,6.9-10.3,12.2-17.4,15.9c-7.1,3.7-14.8,5.5-23.1,5.5
		c-7.1,0-13.7-1.2-19.9-3.7c-6.2-2.5-11.6-5.9-16.3-10.4c-4.6-4.4-8.3-9.7-10.9-15.7c-2.7-6.1-4-12.6-4-19.7c0-7,1.3-13.5,4-19.6
		c2.7-6.1,6.3-11.3,10.9-15.7c4.6-4.4,10-7.9,16.1-10.5c6.1-2.6,12.6-3.8,19.5-3.8c6,0,11.8,1,17.4,2.9c5.6,1.9,10.5,4.7,14.7,8.2
		c4.2,3.5,7.7,7.7,10.2,12.7c2.6,5,3.8,10.5,3.8,16.7c0,6.8-1.2,12.7-3.6,17.5c-2.4,4.9-5.4,8.8-8.8,11.9c-3.4,3.1-6.9,5.4-10.3,6.8
		c-3.5,1.5-6.3,2.2-8.4,2.2c-2.8,0-5.1-0.7-6.8-2.1c-1.7-1.4-2.7-3.2-2.9-5.4h-0.3c-1.6,2.7-3.7,4.6-6.2,5.8
		c-2.6,1.2-5.3,1.9-8.1,1.9c-2.8,0-5.5-0.6-8-1.8c-2.5-1.2-4.7-2.8-6.6-4.9c-1.9-2.1-3.4-4.5-4.5-7.2c-1.1-2.7-1.7-5.7-1.7-8.8
		c0-4.2,0.7-8.3,2.1-12.3c1.4-4.1,3.3-7.7,5.8-10.9c2.5-3.2,5.6-5.8,9.2-7.7c3.6-1.9,7.5-2.9,11.9-2.9c2.8,0,5.7,0.7,8.8,2.1
		c3,1.4,5.3,3.8,6.8,7.2l2.1-7.2h10.9l-8.4,34.2C452,206.9,451.8,207.8,451.5,208.8z M419.6,210.3c1.9,2.2,4.4,3.3,7.5,3.3
		c2.4,0,4.6-0.6,6.6-1.9c2-1.2,3.7-2.8,5.2-4.7c1.5-1.9,2.6-4,3.4-6.4c0.8-2.4,1.2-4.7,1.2-7c0-3.3-1-6-3-8.1
		c-2-2.1-4.4-3.2-7.2-3.2c-2.4,0-4.6,0.6-6.6,1.8c-2,1.2-3.8,2.7-5.2,4.6c-1.5,1.9-2.6,4-3.4,6.3c-0.8,2.3-1.2,4.6-1.2,6.8
		C416.7,205.3,417.7,208.1,419.6,210.3z"/>
	<path d="M58.2,256.5l22.2,65.2h0.3l21-65.2h29.3v94.7h-19.5v-67.1h-0.3l-23.2,67.1H71.9l-23.2-66.5h-0.3v66.5H28.9v-94.7H58.2z"/>
	<path d="M145.8,302.1c1.7-4.5,4.1-8.3,7.2-11.4c3.1-3.1,6.8-5.6,11.1-7.3c4.3-1.7,9.2-2.6,14.6-2.6c5.4,0,10.3,0.9,14.7,2.6
		s8.1,4.2,11.2,7.3c3.1,3.1,5.5,6.9,7.2,11.4c1.7,4.5,2.5,9.4,2.5,14.9c0,5.5-0.8,10.4-2.5,14.9c-1.7,4.4-4.1,8.2-7.2,11.3
		c-3.1,3.1-6.8,5.6-11.2,7.2c-4.4,1.7-9.3,2.5-14.7,2.5c-5.4,0-10.3-0.8-14.6-2.5c-4.3-1.7-8.1-4.1-11.1-7.2
		c-3.1-3.1-5.5-6.9-7.2-11.3c-1.7-4.4-2.5-9.4-2.5-14.9C143.3,311.5,144.1,306.5,145.8,302.1z M162.9,325c0.5,2.6,1.4,5,2.7,7
		c1.3,2.1,3,3.7,5.1,5c2.1,1.2,4.8,1.9,8,1.9c3.2,0,5.9-0.6,8-1.9c2.2-1.2,3.9-2.9,5.2-5c1.3-2.1,2.2-4.4,2.7-7
		c0.5-2.6,0.8-5.3,0.8-8c0-2.7-0.3-5.4-0.8-8.1c-0.5-2.7-1.4-5-2.7-7c-1.3-2-3-3.7-5.2-5c-2.2-1.3-4.8-1.9-8-1.9
		c-3.2,0-5.8,0.6-8,1.9c-2.1,1.3-3.8,2.9-5.1,5c-1.3,2-2.2,4.4-2.7,7c-0.5,2.7-0.8,5.4-0.8,8.1C162.1,319.7,162.4,322.4,162.9,325z"
		/>
	<path d="M255.9,256.5l22.2,65.2h0.3l21-65.2h29.3v94.7h-19.5v-67.1h-0.3l-23.2,67.1h-16.1l-23.2-66.5h-0.3v66.5h-19.5v-94.7H255.9z
		"/>
	<path d="M392.8,256.5l35.4,94.7h-21.6l-7.2-21.1h-35.4l-7.4,21.1h-21l35.8-94.7H392.8z M394,314.6l-11.9-34.8h-0.3l-12.3,34.8H394z
		"/>
</g>
</svg>
